<svg width="1217" height="238" viewBox="0 0 1217 238" fill="none" xmlns="http://www.w3.org/2000/svg">
<path d="M27.9934 14.1608C39.5252 14.1608 48.8589 23.5104 48.8589 35.0262C48.8589 46.5421 39.5093 55.8917 27.9934 55.8917C16.4776 55.8917 7.12795 46.5421 7.12795 35.0262C7.12795 23.5104 16.4776 14.1608 27.9934 14.1608ZM27.9934 7.20029C12.6549 7.20029 0.16748 19.6877 0.16748 35.0422C0.16748 50.3966 12.6549 62.8681 27.9934 62.8681C43.332 62.8681 55.8194 50.3807 55.8194 35.0422C55.8194 19.7037 43.332 7.21622 27.9934 7.21622V7.20029Z" fill="url(#paint0_linear_4_211)"/>
<path d="M176.027 14.1608C187.559 14.1608 196.892 23.5104 196.892 35.0262C196.892 46.5421 187.543 55.8917 176.027 55.8917C164.511 55.8917 155.161 46.5421 155.161 35.0262C155.161 23.5104 164.511 14.1608 176.027 14.1608ZM176.027 7.20029C160.688 7.20029 148.201 19.6877 148.201 35.0262C148.201 50.3648 160.688 62.8522 176.027 62.8522C191.365 62.8522 203.853 50.3648 203.853 35.0262C203.853 19.6877 191.365 7.20029 176.027 7.20029Z" fill="url(#paint1_linear_4_211)"/>
<path d="M189.12 35.2811C189.12 35.2811 189.12 35.3767 189.12 35.4244C189.072 42.4168 183.147 47.9437 176.17 47.9437H28.6624C21.686 47.9437 15.7609 42.4168 15.7131 35.4244C15.7131 35.3767 15.7131 35.3289 15.7131 35.2811C15.7131 35.074 15.7131 34.867 15.7131 34.6599C15.9042 27.6676 21.686 22.1247 28.6783 22.1247H176.154C183.147 22.1247 188.928 27.6676 189.12 34.6599C189.12 34.867 189.12 35.074 189.12 35.2811Z" fill="url(#paint2_linear_4_211)"/>
<path d="M27.4678 126.946L118.336 222.099C120.678 224.552 124.596 224.6 127.001 222.194L140.731 235.924C143.04 238.234 146.831 238.425 149.204 236.163C149.204 236.163 149.236 236.131 149.252 236.115C149.443 235.94 149.619 235.765 149.794 235.574C152.167 233.153 152.151 229.266 149.762 226.861L136.032 213.132L136.701 212.463C139.027 210.137 139.074 206.378 136.797 204.005L48.5244 111.56C46.1034 120.415 38.0121 126.93 28.4076 126.93C28.1049 126.93 27.7864 126.93 27.4838 126.914L27.4678 126.946Z" fill="url(#paint3_linear_4_211)"/>
<path d="M28.0094 85.2309C34.6513 85.2309 40.5924 88.3527 44.3832 93.1948C47.1865 96.7467 48.8589 101.222 48.8589 106.112C48.8589 107.88 48.6519 109.585 48.2218 111.209C47.5051 114.092 46.1671 116.752 44.3673 119.03C40.5605 123.872 34.6354 126.994 28.0094 126.994H27.5952C21.0967 126.85 15.3467 123.776 11.6037 119.03C9.07115 115.828 7.46244 111.862 7.17574 107.53C7.14388 107.195 7.11203 106.877 7.11203 106.542V106.367C7.11203 106.064 7.11202 105.746 7.12795 105.443C7.14388 105.141 7.15981 104.822 7.19166 104.519C7.98806 93.7363 17.0032 85.2468 27.9934 85.2468M27.9934 78.2863C13.515 78.2704 1.33021 89.5632 0.263048 103.978L0.231192 104.567L0.199336 104.981C0.16748 105.443 0.16748 105.889 0.16748 106.351V106.526C0.16748 107.052 0.199336 107.594 0.24712 108.119C0.629388 113.694 2.66815 118.95 6.15635 123.33C11.317 129.877 19.0898 133.747 27.4519 133.922H28.0253C36.6104 133.922 44.5584 130.052 49.8624 123.283C52.2994 120.208 54.0355 116.704 54.9912 112.898C55.5646 110.715 55.8513 108.422 55.8513 106.08C55.8513 99.7411 53.7806 93.7841 49.8624 88.8465C44.5903 82.1249 36.6263 78.2385 28.0253 78.2385L27.9934 78.2863Z" fill="url(#paint4_linear_4_211)"/>
<path d="M176.951 126.962L86.0823 222.115C83.7409 224.568 79.8227 224.615 77.4176 222.21L63.6878 235.94C61.3782 238.25 57.5874 238.441 55.2141 236.179C55.2141 236.179 55.1823 236.147 55.1664 236.131C54.9752 235.956 54.8 235.781 54.6248 235.59C52.2516 233.169 52.2675 229.282 54.6567 226.877L68.3865 213.147L67.7175 212.478C65.392 210.153 65.3443 206.394 67.6219 204.021L155.894 111.576C158.315 120.431 166.407 126.946 176.011 126.946C176.314 126.946 176.632 126.946 176.935 126.93L176.951 126.962Z" fill="url(#paint5_linear_4_211)"/>
<path d="M176.011 85.2309C187.543 85.2309 196.892 94.5805 196.892 106.112C196.892 117.644 188.037 126.484 176.951 126.978C176.648 126.994 176.33 126.994 176.027 126.994C166.407 126.994 158.331 120.479 155.91 111.623C155.432 109.855 155.177 108.024 155.177 106.112C155.177 94.5805 164.527 85.2309 176.043 85.2309M176.043 78.2704C160.704 78.2704 148.233 90.7578 148.233 106.112C148.233 108.613 148.567 111.082 149.22 113.455C152.517 125.512 163.555 133.938 176.059 133.938C176.489 133.938 176.919 133.938 177.349 133.906C192.241 133.221 203.885 121.021 203.885 106.096C203.885 91.1719 191.397 78.2544 176.043 78.2544V78.2704Z" fill="url(#paint6_linear_4_211)"/>
<path d="M189.12 106.351C189.12 106.351 189.12 106.447 189.12 106.495C189.072 113.487 183.147 119.014 176.17 119.014H28.6624C21.686 119.014 15.7609 113.487 15.7131 106.495C15.7131 106.447 15.7131 106.399 15.7131 106.351C15.7131 106.144 15.7131 105.937 15.7131 105.73C15.9042 98.7377 21.686 93.1948 28.6783 93.1948H176.154C183.147 93.1948 188.928 98.7377 189.12 105.73C189.12 105.937 189.12 106.144 189.12 106.351Z" fill="url(#paint7_linear_4_211)"/>
<path d="M267.755 212.606V36.9057H305.329V212.59H267.755V212.606ZM285.324 212.606V183.808H389.763V212.606H285.324Z" fill="url(#paint8_linear_4_211)"/>
<path d="M443.44 215.043C431.08 215.043 421.236 211.905 413.909 205.645C406.583 199.386 402.935 191.055 402.935 180.639C402.935 169.091 407.283 159.773 415.996 152.701C424.693 145.629 436.861 141.026 452.471 138.908L488.834 133.779V155.011L458.571 159.646C452.057 160.617 447.262 162.417 444.172 165.013C441.082 167.61 439.537 171.193 439.537 175.749C439.537 179.81 441.003 182.916 443.933 185.019C446.864 187.137 450.766 188.188 455.64 188.188C463.286 188.188 469.8 186.118 475.168 181.961C480.536 177.819 483.227 172.977 483.227 167.434L486.652 186.962C483.068 196.232 477.621 203.224 470.31 207.939C462.983 212.654 454.048 215.011 443.472 215.011L443.44 215.043ZM486.875 212.606C485.903 209.022 485.202 205.199 484.804 201.138C484.39 197.076 484.199 192.346 484.199 186.978H483.227V128.172C483.227 123.139 481.555 119.189 478.226 116.338C474.897 113.487 469.975 112.069 463.461 112.069C456.946 112.069 452.359 113.136 448.696 115.239C445.032 117.357 442.627 120.447 441.496 124.509H406.599C408.223 113.28 414.005 104.01 423.928 96.6989C433.851 89.3721 447.438 85.7246 464.672 85.7246C481.905 85.7246 496.225 89.7065 505.67 97.6864C515.099 105.65 519.83 117.134 519.83 132.091V186.994C519.83 191.055 520.116 195.165 520.69 199.322C521.263 203.463 522.187 207.907 523.493 212.622H486.891L486.875 212.606Z" fill="url(#paint9_linear_4_211)"/>
<path d="M601.317 215.043C588.304 215.043 576.835 212.271 566.912 206.744C556.989 201.217 549.217 193.572 543.61 183.808C538.003 174.045 535.184 162.911 535.184 150.376C535.184 137.841 537.987 126.707 543.61 116.943C549.232 107.179 556.989 99.534 566.912 94.0071C576.835 88.4801 588.304 85.7086 601.317 85.7086C612.211 85.7086 622.023 87.6996 630.719 91.6816C639.416 95.6636 646.584 101.159 652.19 108.151C657.797 115.143 661.412 123.362 663.053 132.791H627.677C625.877 126.771 622.676 122.215 618.041 119.125C613.406 116.035 607.99 114.49 601.81 114.49C595.949 114.49 590.868 115.956 586.567 118.886C582.251 121.817 578.954 125.958 576.676 131.326C574.399 136.694 573.268 143.033 573.268 150.36C573.268 157.687 574.399 164.026 576.676 169.394C578.954 174.761 582.251 178.903 586.567 181.833C590.884 184.764 595.965 186.229 601.81 186.229C607.99 186.229 613.406 184.684 618.041 181.594C622.676 178.504 625.893 173.949 627.677 167.928H663.053C661.428 177.358 657.813 185.576 652.19 192.569C646.584 199.561 639.416 205.056 630.719 209.038C622.023 213.02 612.211 215.011 601.317 215.011V215.043Z" fill="url(#paint10_linear_4_211)"/>
<path d="M739.921 215.043C726.095 215.043 714.054 212.319 703.812 206.872C693.571 201.425 685.639 193.811 680.016 184.063C674.409 174.299 671.59 163.07 671.59 150.392C671.59 137.713 674.393 126.277 680.016 116.593C685.623 106.909 693.475 99.3588 703.557 93.8956C713.64 88.4482 725.347 85.7246 738.694 85.7246C752.042 85.7246 762.682 88.3208 772.127 93.5292C781.556 98.7376 788.883 105.969 794.091 115.239C799.3 124.509 801.896 135.419 801.896 147.939C801.896 150.551 801.816 152.94 801.657 155.138C801.498 157.336 801.243 159.407 800.924 161.366H693.077V137.203H771.41L765.071 141.599C765.071 131.517 762.666 124.079 757.871 119.269C753.077 114.474 746.531 112.069 738.232 112.069C728.628 112.069 721.19 115.319 715.901 121.833C710.613 128.348 707.969 138.095 707.969 151.108C707.969 164.121 710.613 173.232 715.901 179.412C721.19 185.592 729.122 188.682 739.698 188.682C745.559 188.682 750.592 187.711 754.829 185.751C759.05 183.792 762.236 180.623 764.338 176.227H798.742C794.681 188.268 787.72 197.745 777.877 204.658C768.033 211.571 755.387 215.027 739.937 215.027L739.921 215.043Z" fill="url(#paint11_linear_4_211)"/>
<path d="M816.359 212.606V66.1971H882.045C892.748 66.1971 901.939 68.0288 909.6 71.6922C917.261 75.3556 923.155 80.5003 927.296 87.1422C931.421 93.7841 933.492 101.652 933.492 110.731C933.492 119.81 931.39 127.535 927.185 134.32C922.98 141.106 917.086 146.346 909.489 150.073C901.891 153.8 892.748 155.664 882.045 155.664H836.905V134.926H880.834C889.244 134.926 895.711 132.76 900.251 128.411C904.79 124.079 907.068 118.17 907.068 110.715C907.068 103.261 904.79 97.6386 900.251 93.4337C895.711 89.2287 889.228 87.1263 880.834 87.1263H842.815V212.59H816.374L816.359 212.606Z" fill="#2E0E55"/>
<path d="M952 212.606V66.1971H978.44V212.606H952ZM964.615 125.99H1059.78V146.728H964.615V125.99ZM1047.79 212.606V66.1971H1074.23V212.606H1047.79Z" fill="#2E0E55"/>
<path d="M1099.41 212.606V66.1971H1165.1C1175.8 66.1971 1184.99 68.0288 1192.65 71.6922C1200.32 75.3556 1206.21 80.5003 1210.35 87.1422C1214.48 93.7841 1216.55 101.652 1216.55 110.731C1216.55 119.81 1214.44 127.535 1210.24 134.32C1206.03 141.106 1200.14 146.346 1192.54 150.073C1184.94 153.8 1175.8 155.664 1165.1 155.664H1119.96V134.926H1163.89C1172.3 134.926 1178.76 132.76 1183.3 128.411C1187.84 124.079 1190.12 118.17 1190.12 110.715C1190.12 103.261 1187.84 97.6386 1183.3 93.4337C1178.76 89.2287 1172.28 87.1263 1163.89 87.1263H1125.87V212.59H1099.43L1099.41 212.606Z" fill="#2E0E55"/>
<path d="M1170.4 18.1761V7.7975H1166.29V4.79669H1178.27V7.7975H1174.18V18.1761H1170.4ZM1179.68 18.1761V4.79669H1182.8L1188.34 13.8947H1186.7L1192.09 4.79669H1195.2L1195.24 18.1761H1191.76L1191.73 10.0911H1192.32L1188.29 16.8573H1186.6L1182.46 10.0911H1183.18V18.1761H1179.68Z" fill="#2E0E55"/>
<defs>
<linearGradient id="paint0_linear_4_211" x1="102.026" y1="34.1413" x2="102.026" y2="255.502" gradientUnits="userSpaceOnUse">
<stop stop-color="#651FBB"/>
<stop offset="1" stop-color="#2E0E55"/>
</linearGradient>
<linearGradient id="paint1_linear_4_211" x1="102.026" y1="34.1413" x2="102.026" y2="255.502" gradientUnits="userSpaceOnUse">
<stop stop-color="#651FBB"/>
<stop offset="1" stop-color="#2E0E55"/>
</linearGradient>
<linearGradient id="paint2_linear_4_211" x1="102.026" y1="34.1413" x2="102.026" y2="255.502" gradientUnits="userSpaceOnUse">
<stop stop-color="#651FBB"/>
<stop offset="1" stop-color="#2E0E55"/>
</linearGradient>
<linearGradient id="paint3_linear_4_211" x1="102.026" y1="34.1413" x2="102.026" y2="255.502" gradientUnits="userSpaceOnUse">
<stop stop-color="#651FBB"/>
<stop offset="1" stop-color="#2E0E55"/>
</linearGradient>
<linearGradient id="paint4_linear_4_211" x1="102.026" y1="34.1413" x2="102.026" y2="255.502" gradientUnits="userSpaceOnUse">
<stop stop-color="#651FBB"/>
<stop offset="1" stop-color="#2E0E55"/>
</linearGradient>
<linearGradient id="paint5_linear_4_211" x1="102.026" y1="34.1413" x2="102.026" y2="255.502" gradientUnits="userSpaceOnUse">
<stop stop-color="#651FBB"/>
<stop offset="1" stop-color="#2E0E55"/>
</linearGradient>
<linearGradient id="paint6_linear_4_211" x1="102.026" y1="34.1413" x2="102.026" y2="255.502" gradientUnits="userSpaceOnUse">
<stop stop-color="#651FBB"/>
<stop offset="1" stop-color="#2E0E55"/>
</linearGradient>
<linearGradient id="paint7_linear_4_211" x1="102.026" y1="34.1413" x2="102.026" y2="255.502" gradientUnits="userSpaceOnUse">
<stop stop-color="#651FBB"/>
<stop offset="1" stop-color="#2E0E55"/>
</linearGradient>
<linearGradient id="paint8_linear_4_211" x1="534.826" y1="79.3829" x2="534.826" y2="279.739" gradientUnits="userSpaceOnUse">
<stop stop-color="#651FBB"/>
<stop offset="1" stop-color="#2E0E55"/>
</linearGradient>
<linearGradient id="paint9_linear_4_211" x1="534.826" y1="79.3829" x2="534.826" y2="279.739" gradientUnits="userSpaceOnUse">
<stop stop-color="#651FBB"/>
<stop offset="1" stop-color="#2E0E55"/>
</linearGradient>
<linearGradient id="paint10_linear_4_211" x1="534.826" y1="79.3829" x2="534.826" y2="279.739" gradientUnits="userSpaceOnUse">
<stop stop-color="#651FBB"/>
<stop offset="1" stop-color="#2E0E55"/>
</linearGradient>
<linearGradient id="paint11_linear_4_211" x1="534.826" y1="79.3829" x2="534.826" y2="279.739" gradientUnits="userSpaceOnUse">
<stop stop-color="#651FBB"/>
<stop offset="1" stop-color="#2E0E55"/>
</linearGradient>
</defs>
</svg>
